<svg width="80" height="80" viewBox="0 0 80 80" fill="none" xmlns="http://www.w3.org/2000/svg">
<circle cx="40" cy="40" r="40" fill="white"/>
<path d="M37.7572 25.2801C35.9012 25.797 34.703 26.4783 33.4109 27.7705C31.3669 29.8145 30.2627 33.2446 30.803 35.8524C31.2259 37.8494 31.9307 39.259 32.4946 39.259C33.0819 39.259 33.1289 38.7187 32.6356 37.5205C31.2964 34.3488 32.0012 30.8482 34.4446 28.5458C37.7103 25.3976 42.738 25.4916 45.8157 28.7337C48.1416 31.1301 48.7289 34.4193 47.4368 37.5205C46.9199 38.7892 46.9669 39.306 47.6012 39.212C48.4705 39.0946 49.2928 36.7687 49.3163 34.4428C49.3163 31.3651 48.1416 28.8277 45.8627 27.0422C43.6542 25.2801 40.2946 24.5518 37.7572 25.2801Z" fill="#286E5B"/>
<path d="M39.6133 28.9686C39.4488 29.1331 39.3313 29.368 39.3313 29.509C39.3313 29.6735 38.9084 29.9084 38.3916 30.0729C37.2639 30.4018 36.9819 30.8717 36.9819 32.4458C36.9819 34.0198 37.2639 34.4897 38.3916 34.8186C39.3078 35.1006 39.3313 35.1241 39.3313 36.2518C39.3313 37.2385 39.2608 37.3795 38.8614 37.3795C38.556 37.3795 38.2976 37.1445 38.1566 36.7686C37.8747 36.0403 37.1229 36.0873 37.0289 36.8391C36.9114 37.6614 37.3813 38.2723 38.3446 38.5777C38.8614 38.7186 39.3313 39.0476 39.4723 39.353C39.7542 39.9873 40.3181 39.9873 40.6 39.353C40.741 39.0476 41.2108 38.7186 41.7277 38.5777C42.8084 38.2488 43.0904 37.7554 43.0904 36.2048C43.0904 34.6307 42.8084 34.1608 41.6807 33.8319C40.7645 33.55 40.741 33.5265 40.741 32.3988C40.741 31.412 40.8114 31.2711 41.2108 31.2711C41.5163 31.2711 41.7747 31.506 41.9157 31.8819C42.1976 32.6102 42.9494 32.5632 43.0434 31.8114C43.1608 30.9891 42.691 30.3783 41.7277 30.0729C41.2343 29.9319 40.741 29.603 40.6 29.3211C40.3416 28.7102 39.9892 28.5927 39.6133 28.9686ZM39.3313 32.4692C39.3313 33.5735 39.2843 33.6439 38.8145 33.5735C38.3916 33.5265 38.2506 33.315 38.2036 32.7277C38.1096 31.6705 38.2741 31.2711 38.8614 31.2711C39.2608 31.2711 39.3313 31.412 39.3313 32.4692ZM41.7982 36.2048C41.7982 37.1211 41.7277 37.262 41.2813 37.3325C40.788 37.403 40.741 37.3325 40.741 36.2048C40.741 35.0771 40.788 35.0066 41.2813 35.0771C41.7277 35.1476 41.7982 35.2885 41.7982 36.2048Z" fill="#286E5B"/>
<path d="M33.7868 33.9493C33.5518 34.5602 33.8807 35.077 34.4446 34.983C34.844 34.9361 34.9849 34.7481 34.9849 34.3252C34.9849 33.9023 34.844 33.7144 34.4446 33.6674C34.1392 33.6204 33.8572 33.7379 33.7868 33.9493Z" fill="#286E5B"/>
<path d="M45.0639 33.9493C44.8289 34.5602 45.1578 35.077 45.7217 34.983C46.1211 34.9361 46.2621 34.7481 46.2621 34.3252C46.2621 33.9023 46.1211 33.7144 45.7217 33.6674C45.4163 33.6204 45.1343 33.7379 45.0639 33.9493Z" fill="#286E5B"/>
<path d="M51.9006 37.7084C51.5247 37.8964 50.6084 38.5542 49.9036 39.1886C48.2825 40.6452 46.497 41.7024 46.0976 41.444C45.8157 41.2795 43.4428 41.1151 35.7367 40.7626C33.4813 40.6452 33.0819 40.6922 32.1657 41.1386C31.5783 41.4205 30.85 41.9608 30.5211 42.3602C29.9807 43.0181 29.9337 43.1355 30.2627 43.441C30.6386 43.8169 30.756 43.7699 32.3536 42.5012C33.2464 41.7729 36.6295 41.6084 38.3211 42.1723C39.0964 42.4542 40.2946 42.5482 42.55 42.5482C45.6042 42.5482 45.6747 42.5482 46.0506 43.1355C46.403 43.6759 46.403 43.7699 46.0741 44.2867C45.6982 44.8271 45.5807 44.8506 42.1741 44.9446C39.1904 44.9916 38.603 45.0855 38.2036 45.438C37.5928 46.0018 37.4283 46.9181 37.8747 47.294C38.1566 47.5289 38.2976 47.4819 38.7205 46.9651C39.2139 46.3542 39.2843 46.3542 42.503 46.2602C45.2048 46.1898 45.9096 46.1193 46.4265 45.7669C47.1548 45.2735 47.6482 44.0283 47.4368 43.1825C47.2958 42.6892 47.4368 42.5247 48.541 41.8434C49.2223 41.4205 50.3265 40.5747 51.0078 39.9404C51.9241 39.0711 52.4175 38.7892 52.9343 38.7892H53.6627L52.3705 40.8331C51.6422 41.9843 50.9843 43.0181 50.8904 43.159C50.7964 43.3 49.2928 44.5922 47.5072 46.0253L44.3121 48.6566H39.9657C35.9012 48.6566 35.5958 48.6801 34.9849 49.15L34.3506 49.6669L31.3669 46.6831C29.7458 45.062 28.2892 43.7229 28.1717 43.7229C27.8193 43.7229 25 46.6126 25 46.9651C25 47.1295 25.1645 47.3175 25.3759 47.4114C25.6108 47.5054 26.1277 47.153 26.903 46.4012L28.0542 45.25L31.3904 48.6096L34.75 51.9458L33.5988 53.097C32.4946 54.2247 32.2596 55 33.0349 55C33.4108 55 36.2771 52.1572 36.2771 51.8048C36.2771 51.6639 36.0657 51.3584 35.8072 51.1235C35.4548 50.7946 35.4078 50.6301 35.5958 50.3717C35.8072 50.1367 36.841 50.0663 40.1771 50.0663H44.5L47.0139 48.0223C51.6892 44.2633 51.7596 44.1928 53.4747 41.444C54.4615 39.8464 55.0723 38.6482 54.9783 38.4367C54.8374 38.0608 53.4747 37.3795 52.9108 37.3795C52.7464 37.403 52.3 37.544 51.9006 37.7084Z" fill="#286E5B"/>
</svg>
