<svg width="14" height="16" viewBox="0 0 14 16" fill="none" xmlns="http://www.w3.org/2000/svg">
<path fill-rule="evenodd" clip-rule="evenodd" d="M10.3192 0.0239645C9.72984 0.148975 9.35339 0.728108 9.4784 1.31749C9.98998 3.72941 10.4728 6.14079 10.928 8.56523C11.0391 9.15738 11.6093 9.54728 12.2014 9.4361C12.7936 9.32493 13.1835 8.75476 13.0723 8.16261C12.6139 5.72103 12.1278 3.29295 11.6128 0.864789C11.4877 0.275403 10.9086 -0.101046 10.3192 0.0239645Z" fill="#F56A01"/>
<path fill-rule="evenodd" clip-rule="evenodd" d="M2.04005 4.85731C1.65859 5.32366 1.7274 6.01095 2.19376 6.39242L8.40031 11.4692C8.86667 11.8507 9.55396 11.7819 9.93543 11.3155C10.3169 10.8492 10.2481 10.1619 9.78172 9.7804L3.57517 4.7036C3.10881 4.32213 2.42152 4.39095 2.04005 4.85731Z" fill="#F56A01"/>
<path fill-rule="evenodd" clip-rule="evenodd" d="M8.72071 14.0616C8.65417 13.4628 8.1148 13.0313 7.51599 13.0978L0.970489 13.8251C0.371676 13.8916 -0.0598202 14.431 0.00671482 15.0298C0.0732498 15.6286 0.612619 16.0601 1.21143 15.9936L7.75694 15.2663C8.35575 15.1998 8.78724 14.6604 8.72071 14.0616Z" fill="#F56A01"/>
</svg>
