<svg width="80" height="80" viewBox="0 0 80 80" fill="none" xmlns="http://www.w3.org/2000/svg">
<circle cx="40" cy="40" r="40" fill="#286E5B"/>
<path d="M39.79 25.0509C39.7196 25.0743 39.6083 25.174 39.5379 25.2619C39.4207 25.4143 39.4149 25.4729 39.4149 26.8795C39.4149 28.3974 39.4324 28.5029 39.6727 28.6963C39.9541 28.9249 40.4698 28.7432 40.5577 28.3799C40.5753 28.3037 40.587 27.5886 40.5753 26.7857L40.5577 25.3322L40.3643 25.1622C40.1709 24.9923 40.0127 24.9571 39.79 25.0509Z" fill="white"/>
<path d="M34.6675 27.8699C34.4448 27.9578 34.3159 28.157 34.3159 28.4208C34.3159 28.6376 34.3569 28.6904 35.1247 29.4582C35.8983 30.2318 35.9452 30.267 36.1738 30.267C36.5723 30.267 36.8478 29.8801 36.7071 29.5109C36.6309 29.2999 35.324 27.9871 35.0954 27.8874C34.8785 27.7937 34.8668 27.7937 34.6675 27.8699Z" fill="white"/>
<path d="M44.8948 27.8874C44.6721 27.9929 43.3651 29.3116 43.2948 29.5109C43.1541 29.8801 43.4296 30.267 43.8281 30.267C44.0567 30.267 44.1036 30.2318 44.8772 29.4582C45.6274 28.708 45.686 28.6376 45.686 28.4325C45.686 28.1512 45.5512 27.9519 45.3226 27.8699C45.0999 27.7937 45.1116 27.7937 44.8948 27.8874Z" fill="white"/>
<path d="M36.8712 31.7968C35.1364 32.0253 33.7181 33.3733 33.3547 35.1433C33.2375 35.7001 33.2375 36.0986 33.3488 36.6203C33.3957 36.843 33.425 37.0422 33.4133 37.0598C33.3957 37.0833 32.2704 37.6342 30.9048 38.2965L28.4257 39.4921L26.7964 41.1097C25.8996 41.9947 25.126 42.7918 25.0791 42.8797C24.9736 43.079 24.9736 43.2431 25.0791 43.4423C25.1436 43.5654 25.507 43.7764 26.6616 44.3625L28.1619 45.1244V47.1054C28.1619 48.8578 28.1737 49.1098 28.2616 49.2563C28.3378 49.3911 28.7539 49.6138 30.3188 50.3758C32.2411 51.3076 32.2822 51.3194 32.499 51.2549C32.6221 51.2197 32.7627 51.126 32.8155 51.0439C32.9444 50.8505 32.9327 50.534 32.7979 50.364C32.7334 50.2761 32.0126 49.8952 31.0103 49.4087L29.3341 48.5941V47.164C29.3341 46.3786 29.3517 45.7398 29.3752 45.7398C29.3927 45.7398 31.0045 46.5427 32.9444 47.5274C35.91 49.0278 36.5196 49.3149 36.7247 49.3149C36.965 49.3149 36.9943 49.2915 38.1958 48.1017L39.4148 46.8885V50.1765V53.4703L38.817 53.189C38.483 53.0307 37.9496 52.7729 37.6273 52.6146C36.4903 52.0461 36.2324 51.9523 36.0038 52.0168C35.6287 52.1164 35.4763 52.5912 35.7166 52.9018C35.8514 53.0718 39.7899 55 40.0009 55C40.0771 55 42.7262 53.7458 45.8911 52.2102C50.6678 49.8952 51.6582 49.397 51.7403 49.2563C51.8282 49.1098 51.8399 48.8578 51.8399 47.1054V45.1244L53.3403 44.3625C54.4949 43.7764 54.8583 43.5654 54.9228 43.4423C55.0282 43.2431 55.0282 43.079 54.9228 42.8797C54.8759 42.7918 54.1022 41.9947 53.2055 41.1097L51.5762 39.4921L49.097 38.2965C47.7314 37.6342 46.6062 37.0833 46.5886 37.0598C46.5769 37.0422 46.6062 36.843 46.653 36.6203C46.7644 36.0986 46.7644 35.7001 46.6472 35.1433C46.3483 33.684 45.305 32.4649 43.9453 31.996C42.7028 31.5623 41.3548 31.7499 40.253 32.5059L40.0009 32.6759L39.7372 32.4942C38.9108 31.9257 37.85 31.6678 36.8712 31.7968ZM38.3306 33.0861C38.6881 33.1975 39.0104 33.3968 39.5028 33.8129C39.7196 33.9946 39.831 34.0473 40.0009 34.0473C40.1709 34.0473 40.2823 33.9946 40.4991 33.8129C41.2786 33.1565 41.7651 32.9513 42.5797 32.9455C43.705 32.9396 44.7131 33.5726 45.2288 34.61C45.9615 36.0928 45.5219 37.2591 43.453 39.2635C43.0545 39.6503 42.4098 40.2188 42.0229 40.5295C41.2376 41.1566 40.083 41.9888 40.0009 41.9888C39.9189 41.9888 38.7643 41.1566 37.9789 40.5295C37.5921 40.2188 36.9357 39.6386 36.5196 39.2342C34.48 37.2532 34.0404 36.0869 34.773 34.61C35.4412 33.262 36.8947 32.6407 38.3306 33.0861ZM34.2338 38.4254C35.1892 39.7676 36.7892 41.2035 39.198 42.8914C39.4148 43.0438 39.6845 43.2079 39.7958 43.2548C39.9892 43.331 40.0244 43.331 40.253 43.2313C40.3878 43.1669 40.8918 42.8328 41.3782 42.487C43.2068 41.1742 44.801 39.7265 45.5981 38.6598C45.8208 38.3609 46.0318 38.1265 46.0611 38.1441C46.3483 38.2554 49.8472 39.9668 49.8472 39.9961C49.8472 40.0137 49.3197 40.2833 48.675 40.5998C47.5791 41.1273 47.4911 41.18 47.4091 41.3793C47.3036 41.6313 47.3798 41.9361 47.5791 42.0767C47.8487 42.2643 48.0714 42.194 49.6187 41.4379L51.1073 40.7112L52.2619 41.8599L53.4165 43.0086L48.4289 45.5229L43.4413 48.0373L42.2515 46.8475C41.5951 46.1911 41.0559 45.6402 41.0559 45.6226C41.0559 45.605 41.7651 45.2416 42.6325 44.8196C44.0215 44.1456 44.2208 44.0284 44.3087 43.8643C44.3907 43.7002 44.3966 43.6299 44.3439 43.4482C44.3087 43.3251 44.2208 43.1845 44.1446 43.1317C43.8808 42.9442 43.6816 43.0145 41.8061 43.9171L40.0009 44.7962L35.0778 42.4108C32.3701 41.098 30.1546 40.0137 30.1546 39.9961C30.1546 39.961 33.888 38.1324 33.9759 38.1265C33.9935 38.1206 34.1107 38.2613 34.2338 38.4254ZM35.154 43.7471C37.2405 44.761 38.946 45.5991 38.946 45.6167C38.946 45.6402 38.4068 46.1911 37.7504 46.8475L36.5606 48.0373L31.573 45.5229L26.5854 43.0086L27.7341 41.8599L28.8828 40.7112L30.1195 41.309C30.7993 41.643 33.0616 42.739 35.154 43.7471ZM50.6678 47.1699V48.5941L45.7915 50.956C43.1072 52.2571 40.839 53.3531 40.7511 53.4L40.587 53.482V50.1824V46.8885L41.8061 48.1017C43.0076 49.2915 43.0369 49.3149 43.2772 49.3149C43.4823 49.3149 44.0918 49.0278 47.0516 47.5274C48.9915 46.5486 50.5974 45.7398 50.6267 45.7398C50.6502 45.7398 50.6678 46.3845 50.6678 47.1699Z" fill="white"/>
<path d="M45.4457 42.2174C45.1468 42.5163 45.2288 42.9793 45.6098 43.1375C46.19 43.3837 46.6648 42.6686 46.2193 42.2174C46.0904 42.0943 45.9908 42.0474 45.8325 42.0474C45.6743 42.0474 45.5746 42.0943 45.4457 42.2174Z" fill="white"/>
<path d="M33.9877 51.0673C33.8001 51.1494 33.6126 51.419 33.6126 51.6124C33.6126 51.7355 33.677 51.8527 33.8118 51.9875C34.0697 52.2454 34.2983 52.2512 34.562 52.0168C34.7203 51.8761 34.7555 51.8058 34.7555 51.6065C34.7555 51.2139 34.3393 50.9208 33.9877 51.0673Z" fill="white"/>
</svg>
