<svg width="86" height="41" viewBox="0 0 86 41" fill="none" xmlns="http://www.w3.org/2000/svg">
<path fill-rule="evenodd" clip-rule="evenodd" d="M58.7115 3.32847C58.5945 3.35894 58.4769 3.38956 58.3589 3.42028C48.262 6.04809 20.2533 14.8211 6.86893 19.0134C4.50177 19.7549 2.59205 20.353 1.31977 20.7486C0.787773 20.914 0.218519 20.629 0.0483108 20.112C-0.121897 19.595 0.171395 19.0419 0.703398 18.8765C1.96422 18.4845 3.86168 17.8901 6.21688 17.1524C19.5804 12.9665 47.6805 4.16457 57.8356 1.5216C57.9556 1.49037 58.0755 1.45915 58.1951 1.428C59.5434 1.0768 60.8582 0.73432 61.9926 0.475287C63.194 0.200952 64.3123 -0.00953561 65.0773 0.000333269C65.2779 0.0029216 65.4988 0.0204288 65.7127 0.0747062C65.9167 0.126518 66.2086 0.235492 66.4433 0.488205C66.7111 0.776493 66.7979 1.13506 66.7604 1.46339C66.7274 1.75195 66.6035 1.99611 66.4894 2.1753C66.2605 2.5349 65.8854 2.91605 65.4253 3.31655C64.95 3.73029 64.3232 4.21613 63.5334 4.78278C60.5786 6.90277 57.5029 8.86811 54.4579 10.8138C53.13 11.6623 51.808 12.5071 50.5044 13.3593C46.1869 16.1818 42.0219 19.1161 38.2963 22.6459C38.2965 22.6456 38.2951 22.6471 38.2919 22.6504C38.2732 22.6694 38.1954 22.7485 38.0558 22.8942C37.9033 23.0532 37.6943 23.2734 37.451 23.5343C36.9636 24.0569 36.3437 24.7371 35.7667 25.4122C35.3973 25.8444 35.0583 26.2597 34.7855 26.6225C35.3708 26.5886 35.9695 26.5081 36.5876 26.401C37.1343 26.3062 37.6829 26.1933 38.2494 26.0765L38.2577 26.0748C38.816 25.9597 39.3921 25.841 39.9697 25.741C49.0634 24.1669 58.0726 22.1981 67.1113 20.2227C67.8676 20.0574 68.6569 19.8821 69.4686 19.7017C73.2072 18.8711 77.4227 17.9345 81.0948 17.3875C81.3448 17.3502 81.596 17.3068 81.8619 17.2608L81.9685 17.2424C82.2687 17.1906 82.5862 17.1369 82.9078 17.0935C83.5499 17.0069 84.2528 16.955 84.9783 17.0462C85.5376 17.1165 85.8396 17.5184 85.9426 17.8493C86.0284 18.1251 86.0006 18.384 85.9697 18.5437C85.935 18.7223 85.8721 18.8993 85.7896 19.0575C85.7146 19.2015 85.5832 19.4081 85.3679 19.572C84.9634 19.88 84.1616 20.3232 83.2801 20.7818C82.3667 21.257 81.2743 21.7957 80.2218 22.3039C79.1681 22.8127 78.1485 23.2937 77.3788 23.6542C76.9937 23.8345 76.6709 23.9847 76.4375 24.0933L76.1581 24.2231L76.0766 24.2612C76.0673 24.2655 76.0605 24.2687 76.0558 24.2709L76.0465 24.2753C74.9211 24.8206 73.7833 25.358 72.643 25.8965C68.0335 28.0736 63.3837 30.2697 59.348 33.0847C59.3256 33.1003 59.3023 33.1165 59.2781 33.1332C59.1307 33.2356 58.9524 33.3593 58.7691 33.5045C58.6929 33.5649 58.6233 33.6233 58.5612 33.6789C60.6276 34.1981 63.0534 34.2951 65.5705 34.2286C66.856 34.1946 68.1466 34.1189 69.4097 34.0405C69.5548 34.0315 69.6996 34.0224 69.844 34.0134C70.9507 33.9442 72.0361 33.8764 73.0527 33.8395C73.186 33.8347 73.5984 33.8144 74.1848 33.7857C76.4899 33.6727 81.4833 33.428 82.7757 33.4674C83.2899 33.4832 83.8234 33.5735 84.25 33.8596C84.7521 34.1963 84.9632 34.7046 84.9511 35.2114C84.9407 35.6489 84.7686 36.0593 84.5947 36.3828C84.4118 36.7229 84.1713 37.0671 83.9201 37.3928C83.5261 37.9035 83.0476 38.4415 82.6264 38.9152C82.5163 39.039 82.4101 39.1584 82.3104 39.2717C82.0604 39.5559 81.8508 39.8015 81.6936 40.0075C81.5357 40.2144 81.4857 40.3117 81.4783 40.326C81.4775 40.3276 81.4772 40.3281 81.4774 40.3277C81.3007 40.8427 80.728 41.1209 80.1981 40.9493C79.6682 40.7777 79.3818 40.2211 79.5584 39.7061C79.6673 39.3886 79.885 39.0775 80.069 38.8365C80.2708 38.5721 80.5194 38.2826 80.773 37.9944C80.8887 37.8629 81.0059 37.731 81.1232 37.5991C81.5387 37.1316 81.9542 36.6641 82.3015 36.2139C82.5215 35.9288 82.6904 35.68 82.8018 35.4727C82.8083 35.4606 82.8146 35.4488 82.8204 35.4374C82.7876 35.4351 82.7516 35.4333 82.7121 35.4321C81.5227 35.3957 76.8838 35.6224 74.4953 35.7392C73.8081 35.7727 73.3072 35.7972 73.1283 35.8037C72.1408 35.8396 71.0847 35.9055 69.9739 35.9749C69.8298 35.984 69.6847 35.993 69.5387 36.0021C68.2748 36.0806 66.9516 36.1584 65.6255 36.1935C62.9862 36.2632 60.2595 36.1666 57.8663 35.5332C57.2874 35.38 56.6143 35.0779 56.3522 34.4073C56.0835 33.7196 56.4269 33.1179 56.6464 32.8187C56.893 32.4824 57.225 32.1919 57.4907 31.9813C57.7287 31.7926 57.9639 31.6297 58.1093 31.5289C58.1311 31.5138 58.151 31.5001 58.1684 31.4879C62.3589 28.565 67.2083 26.2758 71.8313 24.0935C72.9531 23.5639 74.0615 23.0407 75.1439 22.5162C75.1706 22.5033 75.2788 22.453 75.4499 22.3734C75.6921 22.2609 76.06 22.0898 76.5006 21.8834C77.2662 21.5249 78.2779 21.0476 79.3217 20.5436C80.2241 20.1079 81.1461 19.6543 81.9522 19.2415C81.771 19.2723 81.586 19.3029 81.4013 19.3304C77.8097 19.8654 73.6863 20.7813 69.9483 21.6116C69.1288 21.7936 68.3279 21.9716 67.5551 22.1404L67.5439 22.1429C58.5163 24.1158 49.4666 26.0936 40.3245 27.6762C39.7821 27.77 39.2356 27.8826 38.669 27.9993L38.6618 28.0008C38.103 28.116 37.5247 28.2352 36.9427 28.3361C35.7744 28.5385 34.5386 28.6773 33.2727 28.5663C32.9691 28.5397 32.557 28.3907 32.3273 27.9691C32.1392 27.6237 32.186 27.2852 32.2204 27.1236C32.2925 26.7845 32.4881 26.4389 32.6582 26.1699C33.0286 25.5843 33.6171 24.8507 34.2106 24.1563C35.4039 22.7602 36.7705 21.3462 36.8842 21.2385C40.7422 17.5832 45.0279 14.5705 49.3754 11.7284C50.7174 10.8511 52.0608 9.99269 53.3997 9.13719C56.4227 7.20564 59.4227 5.28877 62.3319 3.20149C62.9166 2.782 63.3889 2.42244 63.7621 2.1167C63.3844 2.18522 62.9475 2.27637 62.4553 2.38877C61.3533 2.6404 60.0691 2.97487 58.7115 3.32847ZM64.7835 1.11651C64.7836 1.11649 64.7828 1.11822 64.7809 1.12176C64.7825 1.1183 64.7834 1.11652 64.7835 1.11651ZM58.2517 34.0261C58.2511 34.0262 58.2531 34.0213 58.2592 34.0107C58.2553 34.0207 58.2522 34.026 58.2517 34.0261Z" fill="white" fill-opacity="0.25"/>
</svg>
