<svg width="113" height="17" viewBox="0 0 113 17" fill="none" xmlns="http://www.w3.org/2000/svg">
<path fill-rule="evenodd" clip-rule="evenodd" d="M30.0813 9.77428C25.2325 11.1801 19.6343 12.5791 14.2488 12.9284C9.64574 13.2266 5.19958 12.7635 1.56034 10.7931C1.04734 10.5157 0.404923 10.7064 0.127487 11.2198C-0.150373 11.7328 0.040786 12.3752 0.55379 12.6531C4.52375 14.802 9.36449 15.364 14.3854 15.0384C19.8677 14.6831 25.567 13.2748 30.5131 11.8487C31.087 13.0113 32.2754 14.0953 34.3689 14.895C37.5844 16.1236 41.9747 16.1084 46.5998 15.416C53.3077 14.4124 60.5236 12.0191 65.1631 10.3186C65.3534 10.2492 65.6367 10.1388 65.9835 9.99335C66.0893 10.2268 66.2077 10.4569 66.3388 10.6827C67.4764 12.651 69.4896 14.2424 71.5407 14.8108C84.5498 18.415 99.7327 14.0965 112.095 10.582C112.653 10.4226 112.979 9.8373 112.822 9.27609C112.661 8.71487 112.078 8.38879 111.515 8.54823C99.5001 11.9646 84.7485 16.275 72.1032 12.7728C70.5468 12.3414 69.0328 11.1183 68.17 9.62456C68.0728 9.45793 67.9882 9.2875 67.9078 9.11452C69.6122 8.26995 71.6168 7.09254 72.6953 5.83223C73.8033 4.54021 74.0782 3.16106 73.114 1.85847C72.2851 0.744915 71.029 0.650179 69.7221 1.22747C68.3138 1.84578 66.8632 3.2913 66.3938 3.96967C65.5141 5.23674 65.235 6.61125 65.3957 7.95149C64.9812 8.12658 64.6446 8.25683 64.4369 8.33295C59.899 9.99588 52.8459 12.3431 46.2868 13.3247C42.0665 13.9566 38.0576 14.0407 35.1234 12.92C33.872 12.4416 33.0451 11.8834 32.5964 11.2355C33.482 10.9707 34.3359 10.7102 35.1517 10.4615C36.7652 9.96967 40.1244 9.15555 42.5245 7.70451C44.4331 6.55078 45.7273 4.98132 45.652 3.01389C45.6135 2.0031 45.0286 1.32853 44.0978 0.95044C42.7068 0.38584 40.3012 0.659042 39.4055 0.849356C36.6886 1.42538 33.0625 3.80982 31.2685 6.49664C30.5524 7.56874 30.1266 8.69033 30.0813 9.77428ZM32.3131 9.11367C33.0807 8.88275 33.8225 8.65607 34.5351 8.43868C36.0411 7.97939 39.1893 7.24985 41.4304 5.89481C42.6171 5.17753 43.586 4.31817 43.5391 3.09465C43.5353 2.9995 43.441 2.97244 43.3576 2.93353C43.2287 2.8739 43.0811 2.83286 42.9237 2.80072C41.8592 2.58334 40.4293 2.79352 39.844 2.91786C37.5645 3.40126 34.5321 5.41649 33.0269 7.67108C32.7089 8.14729 32.4556 8.63239 32.3131 9.11367ZM67.4849 6.97792C68.4788 6.46661 69.5191 5.84829 70.3396 5.17542C70.7752 4.81805 71.1432 4.45055 71.3758 4.06907C71.5703 3.75357 71.6464 3.43044 71.4138 3.11833C71.3208 2.99187 71.1812 2.98935 71.0374 3.01303C70.8852 3.03841 70.7287 3.09253 70.5722 3.16231C69.5403 3.61653 68.4745 4.67764 68.132 5.17542C67.7302 5.75271 67.5314 6.36342 67.4849 6.97792Z" fill="white" fill-opacity="0.25"/>
</svg>
