<svg width="80" height="80" viewBox="0 0 80 80" fill="none" xmlns="http://www.w3.org/2000/svg">
<circle cx="40" cy="40" r="40" fill="#286E5B"/>
<path d="M29.8068 25.1758C28.4126 25.5311 26.1437 26.898 25.2689 27.9094C24.8042 28.4288 24.0935 29.5496 23.7108 30.3971C23.1093 31.6545 23 32.2833 23 34.2242C23.0273 37.942 23.246 38.27 32.2398 47.2637C36.4769 51.5283 40.1401 55 40.3587 55C40.6048 55 44.2952 51.4736 48.5871 47.1271C57.5535 38.106 57.6628 37.942 57.6901 34.2242C57.7175 32.2833 57.6081 31.6545 57.0067 30.3971C55.9953 28.2101 54.7925 26.98 52.7149 25.9685C51.0747 25.1484 50.6373 25.0664 48.5597 25.0664C45.662 25.0664 44.2679 25.6405 41.9989 27.8274L40.3587 29.3856L38.7185 27.8274C37.8164 26.98 36.5043 26.0232 35.7935 25.6952C34.372 25.0664 31.2557 24.7931 29.8068 25.1758ZM35.0281 27.6361C36.2583 28.2101 38.7185 30.2604 38.7185 30.7798C38.7185 30.9438 37.6251 32.2013 36.2583 33.5408C34.9188 34.8803 33.798 36.1377 33.798 36.3018C33.798 36.4658 34.3994 37.1765 35.1648 37.8873C36.3129 38.9534 36.6683 39.1448 37.6251 39.1448C38.6365 39.1448 38.9372 38.9534 40.7688 37.2312C41.8896 36.1651 42.9284 35.3176 43.1197 35.3176C43.5025 35.3176 49.5438 41.195 49.9812 41.9604C50.2819 42.5618 49.8445 43.2453 49.1338 43.2453C48.8878 43.2453 47.5756 42.1245 46.2361 40.785C43.7211 38.27 43.0651 37.942 42.4363 38.9261C42.1903 39.3361 42.573 39.8282 44.8146 42.0971C46.2634 43.6006 47.4663 44.9128 47.4663 45.0768C47.4663 45.4595 46.8649 45.9789 46.3728 45.9789C46.1541 45.9789 44.8419 44.8581 43.5025 43.5186C40.9875 41.0037 40.3314 40.6756 39.7027 41.6597C39.4566 42.0698 39.8393 42.5618 42.1083 44.8581C43.5845 46.3616 44.7326 47.7558 44.6779 47.9198C44.6233 48.1112 44.3772 48.3845 44.1312 48.5486C43.4751 48.9586 41.4249 47.7831 40.9055 46.6897C40.6868 46.225 40.058 45.6235 39.5386 45.3228C39.0192 45.0495 38.3905 44.4207 38.1718 43.956C37.9531 43.4913 37.3244 42.8899 36.805 42.5892C36.2856 42.3158 35.6568 41.7144 35.4382 41.2224C35.2195 40.7576 34.6181 40.1562 34.126 39.8829C32.9505 39.1994 31.7477 39.4455 30.2989 40.6483L29.2054 41.6051L27.6472 39.9102C25.597 37.6686 25.0502 36.4658 25.0502 34.1968C25.0502 32.2013 25.4876 30.9165 26.5538 29.6043C28.7407 27.0347 31.9664 26.2966 35.0281 27.6361ZM51.7581 27.7181C53.2069 28.4015 54.9292 30.315 55.3392 31.7092C55.8313 33.3221 55.7493 35.837 55.1478 37.0945C54.8471 37.6959 54.0544 38.8441 53.3436 39.6368L52.0315 41.0857L48.1497 37.2585C44.4046 33.5134 44.2405 33.4041 43.1197 33.4041C42.0809 33.4041 41.8076 33.5681 39.9487 35.3176C38.8279 36.3564 37.8438 37.2312 37.7618 37.2312C37.3244 37.2312 36.5316 36.6298 36.5316 36.3018C36.5316 35.8097 44.1312 28.4015 45.1973 27.8274C47.3022 26.7613 49.6532 26.7066 51.7581 27.7181ZM33.5246 42.0151C33.8253 42.3705 33.7433 42.5892 32.9779 43.3819C32.1031 44.2841 32.0211 44.3114 31.5564 43.874C30.9276 43.2999 30.9276 42.9992 31.6657 42.2338C32.3491 41.4957 33.0325 41.4137 33.5246 42.0151ZM36.2583 44.7488C36.559 45.1041 36.4769 45.3228 35.7115 46.1156C34.8367 47.0177 34.7547 47.045 34.29 46.6077C33.6613 46.0336 33.6613 45.7329 34.3994 44.9675C35.0828 44.2294 35.7662 44.1474 36.2583 44.7488ZM38.9919 47.4824C39.2926 47.8378 39.2106 48.0565 38.4452 48.8493C37.5704 49.7514 37.4884 49.7787 37.0237 49.3413C36.3949 48.7673 36.3949 48.4666 37.133 47.7011C37.8164 46.963 38.4999 46.881 38.9919 47.4824ZM41.7256 50.2161C42.0263 50.5715 41.9443 50.7902 41.1788 51.5829C40.3041 52.485 40.2221 52.5124 39.7573 52.075C39.1286 51.5009 39.1286 51.2002 39.8667 50.4348C40.5501 49.6967 41.2335 49.6147 41.7256 50.2161Z" fill="white"/>
</svg>
